<svg xmlns="http://www.w3.org/2000/svg" viewBox="0 0 326.2 129.82"><title>Asset 4</title><g id="Layer_2" data-name="Layer 2"><g id="Layer_1-2" data-name="Layer 1"><path d="M82.61,63.49a30.4,30.4,0,0,1-10.13-4.36,7.66,7.66,0,0,1-2.2-2.43,6.71,6.71,0,0,1-.68-3.24,7.16,7.16,0,0,1,1.62-4.68,4.78,4.78,0,0,1,3.78-2,7.07,7.07,0,0,1,2.25.36A14,14,0,0,1,80,48.51a29.47,29.47,0,0,0,7.34,3,34.34,34.34,0,0,0,8.23.9c3.54,0,6.22-.52,8-1.58a5,5,0,0,0,2.75-4.63q0-2.07-2.57-3.56T94,39.69A56.79,56.79,0,0,1,80,35.19Q75,32.58,73,29a17.06,17.06,0,0,1-2-8.59A17.27,17.27,0,0,1,74.37,10a22.82,22.82,0,0,1,9.41-7.34A32.94,32.94,0,0,1,97.23,0a43.37,43.37,0,0,1,11.7,1.44,29.38,29.38,0,0,1,9.36,4.5,7.37,7.37,0,0,1,2.29,2.47,6.82,6.82,0,0,1,.68,3.2,7.34,7.34,0,0,1-1.57,4.68,4.68,4.68,0,0,1-3.74,2,6.8,6.8,0,0,1-2.16-.32A14,14,0,0,1,111,16.56c-.3-.18-1.16-.64-2.56-1.4a21.3,21.3,0,0,0-5-1.8,26.56,26.56,0,0,0-6.16-.67,13.71,13.71,0,0,0-7.38,1.75,5.3,5.3,0,0,0-2.79,4.64,4,4,0,0,0,1,2.79A9.85,9.85,0,0,0,91.83,24a52.57,52.57,0,0,0,8,2.12,54.12,54.12,0,0,1,13.59,4.54,17.44,17.44,0,0,1,7,6.17,16,16,0,0,1,2.07,8.28,17.24,17.24,0,0,1-3.33,10.48,21.19,21.19,0,0,1-9.31,7A36.05,36.05,0,0,1,96,65.07,53.78,53.78,0,0,1,82.61,63.49Z"/><path d="M151.63,62.5a7.77,7.77,0,0,1-2.29-5.89V16.25a2,2,0,0,0-2-2H136.65c-2.64,0-4.61-.55-5.9-1.67a6.32,6.32,0,0,1-1.93-5.08q0-3.42,1.93-5t5.9-1.62h42.12q4,0,5.89,1.62a6.21,6.21,0,0,1,1.94,5,6.32,6.32,0,0,1-1.94,5.08c-1.29,1.12-3.25,1.67-5.89,1.67H168.11a2,2,0,0,0-2,2V56.61a7.77,7.77,0,0,1-2.3,5.89,9.45,9.45,0,0,1-12.15,0Z"/><path d="M251.4,58.32A6,6,0,0,1,249,63.13a8.82,8.82,0,0,1-9.58.95,9,9,0,0,1-3.24-3L224.49,44a9.44,9.44,0,0,0-2.66-2.66,6.23,6.23,0,0,0-3.28-.85h-3.82a2,2,0,0,0-2,2V56.61a8.17,8.17,0,0,1-2.16,6,7.9,7.9,0,0,1-5.94,2.21,7.61,7.61,0,0,1-8.19-8.19V8.46a7.67,7.67,0,0,1,2-5.67,7.67,7.67,0,0,1,5.67-2h22.59q11.52,0,17.32,5t5.81,14.45a19,19,0,0,1-4,12.19,17.83,17.83,0,0,1-6.15,4.93,2,2,0,0,0-.19,3.53l.35.23a18.47,18.47,0,0,1,4.37,4.59l5.58,8A8.37,8.37,0,0,1,251.4,58.32ZM231.91,26.37q2.39-1.71,2.39-5.58t-2.39-5.72q-2.39-1.75-7.87-1.75h-9.49a2,2,0,0,0-2,2v10.7a2,2,0,0,0,2,2H224Q229.53,28.08,231.91,26.37Z"/><path d="M277.36,61.06a27.2,27.2,0,0,1-11-11.34,36.38,36.38,0,0,1-3.87-17.23,36.48,36.48,0,0,1,3.87-17.24A27.08,27.08,0,0,1,277.36,4a37.94,37.94,0,0,1,33.75,0,26.81,26.81,0,0,1,11,11.29,36.83,36.83,0,0,1,3.83,17.24,36.38,36.38,0,0,1-3.87,17.23,27.22,27.22,0,0,1-11,11.34,37.32,37.32,0,0,1-33.66,0Zm28.13-13.77q4-5.07,4.05-14.8t-4.1-14.76a13.65,13.65,0,0,0-11.2-5q-7.2,0-11.25,5t-4.05,14.81q0,9.81,4.05,14.85t11.25,5Q301.44,52.38,305.49,47.29Z"/><path d="M32.41,97.65q2.94,3.67,2.94,11.17v15.12a5.42,5.42,0,0,1-1.68,4.2,6.46,6.46,0,0,1-4.55,1.54,6.46,6.46,0,0,1-4.55-1.54,5.42,5.42,0,0,1-1.68-4.2v-15.4q0-5-4.34-5a5.76,5.76,0,0,0-4.45,1.78,6.83,6.83,0,0,0-1.64,4.8v13.86a5.42,5.42,0,0,1-1.68,4.2,6.46,6.46,0,0,1-4.55,1.54,6.46,6.46,0,0,1-4.55-1.54A5.42,5.42,0,0,1,0,123.94V85.16a5.18,5.18,0,0,1,1.75-4,6.65,6.65,0,0,1,4.62-1.57A6.45,6.45,0,0,1,10.78,81,5,5,0,0,1,12.46,85v9.43a2,2,0,0,0,3.16,1.68,12.48,12.48,0,0,1,1.53-.82A15.21,15.21,0,0,1,23.45,94Q29.47,94,32.41,97.65Z"/><path d="M73.67,97.79q3.83,3.83,3.82,11.59V124a5.48,5.48,0,0,1-1.58,4.16,6,6,0,0,1-4.37,1.51,5.87,5.87,0,0,1-4-1.4,4.64,4.64,0,0,1-.64-.69,2,2,0,0,0-3-.19,8.19,8.19,0,0,1-1.36,1,10.49,10.49,0,0,1-5.53,1.4,14.15,14.15,0,0,1-6.44-1.44,11.16,11.16,0,0,1-4.52-4,10.46,10.46,0,0,1-1.64-5.77,8.71,8.71,0,0,1,1.92-5.92,11.32,11.32,0,0,1,6.13-3.18,52.23,52.23,0,0,1,11.34-1h1.89v-.84a4.77,4.77,0,0,0-1.12-3.54,5.37,5.37,0,0,0-3.78-1.08,27.75,27.75,0,0,0-8.4,2,8.65,8.65,0,0,1-2.73.56,3.46,3.46,0,0,1-2.8-1.26,5,5,0,0,1-1-3.29,4.57,4.57,0,0,1,.63-2.52,5.5,5.5,0,0,1,2-1.75,24.28,24.28,0,0,1,6.16-2A36,36,0,0,1,61.88,94Q69.86,94,73.67,97.79ZM64.05,119.7a6.58,6.58,0,0,0,1.61-4.58v-.84H64.54a18,18,0,0,0-6.37.8,2.77,2.77,0,0,0-1.89,2.7,3.7,3.7,0,0,0,1,2.66,3.51,3.51,0,0,0,2.63,1A5.31,5.31,0,0,0,64.05,119.7Z"/><path d="M140.7,97.38q3.08,3.39,3.08,11.44v15.12a5.18,5.18,0,0,1-1.79,4.3,7.58,7.58,0,0,1-8.89,0,5.18,5.18,0,0,1-1.78-4.3v-15.4a6,6,0,0,0-1-3.92,3.61,3.61,0,0,0-2.87-1.12,4.84,4.84,0,0,0-3.92,1.75,7.3,7.3,0,0,0-1.47,4.83v13.86a5.25,5.25,0,0,1-1.75,4.3,7.64,7.64,0,0,1-8.93,0,5.18,5.18,0,0,1-1.78-4.3v-15.4a6,6,0,0,0-1-3.92,3.61,3.61,0,0,0-2.87-1.12,4.76,4.76,0,0,0-3.89,1.75,7.45,7.45,0,0,0-1.43,4.83v13.86a5.18,5.18,0,0,1-1.79,4.3,7.58,7.58,0,0,1-8.89,0,5.18,5.18,0,0,1-1.78-4.3V99.72a5,5,0,0,1,1.85-4.17,7.1,7.1,0,0,1,4.45-1.43,6.41,6.41,0,0,1,4.09,1.29,4.49,4.49,0,0,1,.83.86,2.08,2.08,0,0,0,3.06.42A12.46,12.46,0,0,1,110.6,94q5.88,0,8.7,3.76a2,2,0,0,0,3,.14,13.09,13.09,0,0,1,3-2.26A13.43,13.43,0,0,1,132,94Q137.62,94,140.7,97.38Z"/><path d="M160,129.12a17.52,17.52,0,0,1-5.67-2.24,3.39,3.39,0,0,1-1.54-1.68,6.06,6.06,0,0,1-.56-2.66,4.77,4.77,0,0,1,1-3.12,3.21,3.21,0,0,1,2.56-1.22,7.68,7.68,0,0,1,2,.24,19.33,19.33,0,0,1,2.17.78l.13,0c1.47.5,2.77.89,3.89,1.17a18.91,18.91,0,0,0,4.38.42,6.89,6.89,0,0,0,3-.53,1.63,1.63,0,0,0,1.09-1.5,1.44,1.44,0,0,0-.53-1.19,5.82,5.82,0,0,0-2-.81q-1.47-.37-5-1.08c-4.16-.79-7.15-2-9-3.61a8.58,8.58,0,0,1-2.76-6.82,9.28,9.28,0,0,1,2-5.81,13.15,13.15,0,0,1,5.5-4.06A20,20,0,0,1,168.42,94a24.44,24.44,0,0,1,6.12.77,19.57,19.57,0,0,1,5.29,2.17A4.35,4.35,0,0,1,182,101a5.14,5.14,0,0,1-1.05,3.29,3.19,3.19,0,0,1-2.59,1.33,10.54,10.54,0,0,1-4.34-1.19,23.85,23.85,0,0,0-3-1.16,11,11,0,0,0-3-.38,5.84,5.84,0,0,0-2.73.52,1.64,1.64,0,0,0-1,1.51,1.94,1.94,0,0,0,1.36,1.75,27.4,27.4,0,0,0,5.43,1.4q6.78,1.19,9.59,3.6a8.73,8.73,0,0,1,2.8,7,9.53,9.53,0,0,1-4.24,8.15q-4.23,3-11.37,3A37.65,37.65,0,0,1,160,129.12Z"/><path d="M216.79,125a4,4,0,0,1-1.89,3.64,9.12,9.12,0,0,1-5.39,1l-2-.14q-6.3-.5-9.56-3.82t-3.25-9.27V106a2,2,0,0,0-2-2h0c-3.74,0-5.6-1.54-5.6-4.62s1.86-4.55,5.6-4.55h0a2,2,0,0,0,2-2V90.27A5.54,5.54,0,0,1,196.42,86a7.38,7.38,0,0,1,9.1,0,5.54,5.54,0,0,1,1.68,4.24v2.52a2,2,0,0,0,2,2h1.82q5.59,0,5.6,4.55t-5.6,4.62h-1.82a2,2,0,0,0-2,2v11.41a3.29,3.29,0,0,0,.8,2.24,2.87,2.87,0,0,0,2.07,1l2,.14C215.22,121,216.79,122.38,216.79,125Z"/><path d="M254.2,119.46a5.07,5.07,0,0,1,1,3.29,4.63,4.63,0,0,1-2.73,4.27,27.2,27.2,0,0,1-5.64,2,24.89,24.89,0,0,1-6,.81,21.75,21.75,0,0,1-10-2.17,15.41,15.41,0,0,1-6.58-6.23A18.93,18.93,0,0,1,222,111.9a19.28,19.28,0,0,1,2.2-9.28,15.94,15.94,0,0,1,6.16-6.37A17.65,17.65,0,0,1,239.26,94a16.66,16.66,0,0,1,8.47,2.1,14.31,14.31,0,0,1,5.63,6,19.39,19.39,0,0,1,2,9,3.75,3.75,0,0,1-.74,2.48,2.61,2.61,0,0,1-2.13.88H236.64a2,2,0,0,0-1.89,2.79,5.69,5.69,0,0,0,1.43,2,7.34,7.34,0,0,0,5,1.47,12.57,12.57,0,0,0,3.22-.39,29.69,29.69,0,0,0,3.29-1.08c.7-.28,1.39-.53,2.06-.74a6.34,6.34,0,0,1,1.86-.31A3.2,3.2,0,0,1,254.2,119.46ZM235.69,104a5.61,5.61,0,0,0-1.13,1.83,2,2,0,0,0,1.9,2.76h6a2,2,0,0,0,1.93-2.68,4.66,4.66,0,0,0-4.83-3.48A5.09,5.09,0,0,0,235.69,104Z"/><path d="M290.15,95.2a5,5,0,0,1,1.4,3.82,5.44,5.44,0,0,1-1.3,4.06q-1.29,1.26-4.65,1.61l-2.1.21c-2.34.28-4,1-5,2.2A7.35,7.35,0,0,0,277,112v12a5.18,5.18,0,0,1-1.79,4.3,7.58,7.58,0,0,1-8.89,0,5.18,5.18,0,0,1-1.78-4.3V99.72a5.05,5.05,0,0,1,1.78-4.13,6.57,6.57,0,0,1,4.31-1.47,6.05,6.05,0,0,1,4.16,1.4,5,5,0,0,1,1.58,3.92v1.33A9.31,9.31,0,0,1,280,96a10.59,10.59,0,0,1,5.36-1.82l1-.07A4.73,4.73,0,0,1,290.15,95.2Z"/><path d="M302.68,129.12a17.52,17.52,0,0,1-5.67-2.24,3.39,3.39,0,0,1-1.54-1.68,6.06,6.06,0,0,1-.56-2.66,4.77,4.77,0,0,1,1-3.12,3.21,3.21,0,0,1,2.56-1.22,7.68,7.68,0,0,1,2,.24,20.12,20.12,0,0,1,2.18.78l.12,0c1.47.5,2.76.89,3.89,1.17a18.91,18.91,0,0,0,4.38.42,6.89,6.89,0,0,0,3-.53,1.63,1.63,0,0,0,1.09-1.5,1.44,1.44,0,0,0-.53-1.19,5.82,5.82,0,0,0-2-.81q-1.47-.37-5-1.08c-4.16-.79-7.15-2-9-3.61a8.58,8.58,0,0,1-2.76-6.82,9.28,9.28,0,0,1,2-5.81,13.15,13.15,0,0,1,5.5-4.06A20,20,0,0,1,311.15,94a24.44,24.44,0,0,1,6.12.77,19.57,19.57,0,0,1,5.29,2.17,4.35,4.35,0,0,1,2.17,4.06,5.14,5.14,0,0,1-1.05,3.29,3.19,3.19,0,0,1-2.59,1.33,10.54,10.54,0,0,1-4.34-1.19,24.46,24.46,0,0,0-3-1.16,11,11,0,0,0-3-.38,5.84,5.84,0,0,0-2.73.52,1.64,1.64,0,0,0-1,1.51,1.94,1.94,0,0,0,1.36,1.75,27.4,27.4,0,0,0,5.43,1.4q6.78,1.19,9.59,3.6a8.73,8.73,0,0,1,2.8,7,9.53,9.53,0,0,1-4.24,8.15q-4.23,3-11.37,3A37.65,37.65,0,0,1,302.68,129.12Z"/><path d="M40,22.44,31.06,4.33a2.29,2.29,0,0,0-4.1,0L18,22.44M10.16,42.62,6.75,62.53a2.28,2.28,0,0,0,3.31,2.41L28,55.54a2.27,2.27,0,0,1,2.12,0L48,64.94a2.29,2.29,0,0,0,3.32-2.41L47.85,42.62"/></g></g></svg>